<svg xmlns:xlink="http://www.w3.org/1999/xlink" xmlns="http://www.w3.org/2000/svg" width="49" height="49" viewBox="0 0 512 512" aria-labelledby="off_hand" role="presentation" credit="game-icons.net"><defs><filter id="off-hand-icon" height="300%" width="300%" x="-100%" y="-100%"><feFlood flood-color="hsl(350, 40%, 35%)" result="flood"></feFlood> <feComposite in="flood" in2="SourceGraphic" operator="atop" result="composite"></feComposite>  <feOffset dx="0" dy="0" result="offset"></feOffset> <feComposite in="SourceGraphic" in2="offset" operator="over"></feComposite></filter></defs> <g><path d="M79.238 115.768l-28.51 67.863h406.15l-.273-67.862h-263.83v55.605h-15v-55.605h-16.68v55.605H146.1v-55.605h-17.434v55.605h-15v-55.605H79.238zm387.834 15.96v40.66h18.688v-40.66h-18.688zM56.768 198.63l20.566 32.015L28.894 406.5l101.68 7.174 21.54-97.996h115.74l14.664-80.252 174.55-3.873-.13-32.922H56.767zM263.44 235.85l-11.17 61.142h-96.05l12.98-59.05 12.53-.278-2.224 35.5 14.262 13.576 1.003-33.65 24.69-16.264 43.98-.976z" fill="#5CB85C" fill-opacity="1" stroke="#161616" stroke-opacity="1" stroke-width="3px" filter="url(#off-hand-icon)"></path></g> </svg>
